<svg xmlns="http://www.w3.org/2000/svg" width="260" height="260" viewBox="0 0 260 260">
  <rect width="260" height="260" fill="none"/>
  <g opacity="0.32" transform="translate(34 28) rotate(-16 42 42)">
    <path fill="#ffffff" stroke="#b9d0c0" stroke-width="1.4" d="M42 2c4.8 8.6 5.2 16.6 0 24.2C36.8 18.6 37.2 10.6 42 2Z"/>
    <path fill="#ffffff" stroke="#b9d0c0" stroke-width="1.4" d="M67.1 10.2c-1.2 9.7-5.5 16.5-13.7 19.7 1-9.1 5.7-15.6 13.7-19.7Z"/>
    <path fill="#ffffff" stroke="#b9d0c0" stroke-width="1.4" d="M77 38.6c-7.9 5.8-15.8 7.1-23.8 3.2 6.9-6.1 14.7-7.1 23.8-3.2Z"/>
    <path fill="#ffffff" stroke="#b9d0c0" stroke-width="1.4" d="M61.1 67c-9.5-2.4-15.6-7.5-17.8-16 8.9 2.1 14.7 7.6 17.8 16Z"/>
    <path fill="#ffffff" stroke="#b9d0c0" stroke-width="1.4" d="M22.9 67c3.1-8.4 8.9-13.9 17.8-16-2.2 8.5-8.3 13.6-17.8 16Z"/>
    <path fill="#ffffff" stroke="#b9d0c0" stroke-width="1.4" d="M7 38.6c9.1-3.9 16.9-2.9 23.8 3.2-8 3.9-15.9 2.6-23.8-3.2Z"/>
    <path fill="#ffffff" stroke="#b9d0c0" stroke-width="1.4" d="M16.9 10.2c8 4.1 12.7 10.6 13.7 19.7-8.2-3.2-12.5-10-13.7-19.7Z"/>
    <circle cx="42" cy="42" r="12" fill="#efd078"/>
    <circle cx="42" cy="42" r="5.8" fill="#d7a84f"/>
  </g>
  <g opacity="0.22" transform="translate(164 154) rotate(20 34 34) scale(.82)">
    <path fill="#ffffff" stroke="#b9d0c0" stroke-width="1.4" d="M42 2c4.8 8.6 5.2 16.6 0 24.2C36.8 18.6 37.2 10.6 42 2Z"/>
    <path fill="#ffffff" stroke="#b9d0c0" stroke-width="1.4" d="M67.1 10.2c-1.2 9.7-5.5 16.5-13.7 19.7 1-9.1 5.7-15.6 13.7-19.7Z"/>
    <path fill="#ffffff" stroke="#b9d0c0" stroke-width="1.4" d="M77 38.6c-7.9 5.8-15.8 7.1-23.8 3.2 6.9-6.1 14.7-7.1 23.8-3.2Z"/>
    <path fill="#ffffff" stroke="#b9d0c0" stroke-width="1.4" d="M61.1 67c-9.5-2.4-15.6-7.5-17.8-16 8.9 2.1 14.7 7.6 17.8 16Z"/>
    <path fill="#ffffff" stroke="#b9d0c0" stroke-width="1.4" d="M22.9 67c3.1-8.4 8.9-13.9 17.8-16-2.2 8.5-8.3 13.6-17.8 16Z"/>
    <path fill="#ffffff" stroke="#b9d0c0" stroke-width="1.4" d="M7 38.6c9.1-3.9 16.9-2.9 23.8 3.2-8 3.9-15.9 2.6-23.8-3.2Z"/>
    <path fill="#ffffff" stroke="#b9d0c0" stroke-width="1.4" d="M16.9 10.2c8 4.1 12.7 10.6 13.7 19.7-8.2-3.2-12.5-10-13.7-19.7Z"/>
    <circle cx="42" cy="42" r="12" fill="#efd078"/>
    <circle cx="42" cy="42" r="5.8" fill="#d7a84f"/>
  </g>
</svg>
