<svg xmlns="http://www.w3.org/2000/svg" viewBox="0 0 64 64" role="img" aria-label="Edelweisschen Streamplan">
  <defs>
    <linearGradient id="bg" x1="12" y1="6" x2="52" y2="58" gradientUnits="userSpaceOnUse">
      <stop offset="0" stop-color="#f7fbf2"/>
      <stop offset="1" stop-color="#d7ead0"/>
    </linearGradient>
    <filter id="soft" x="-25%" y="-25%" width="150%" height="150%">
      <feDropShadow dx="0" dy="3" stdDeviation="3" flood-color="#476a42" flood-opacity=".18"/>
    </filter>
  </defs>
  <rect x="5" y="5" width="54" height="54" rx="17" fill="url(#bg)" stroke="#5f8157" stroke-width="2"/>
  <g filter="url(#soft)" stroke-linejoin="round" stroke-linecap="round">
    <path d="M32 9.5c4.7 7.2 5 13.9 0 19.8-5-5.9-4.7-12.6 0-19.8Z" fill="#ffffff" stroke="#587d51" stroke-width="2"/>
    <path d="M50.7 16.2c-1.4 8.2-5.7 13.3-13 15.2.9-7.5 5.3-12.5 13-15.2Z" fill="#ffffff" stroke="#587d51" stroke-width="2"/>
    <path d="M55 36c-6.8 4.1-13.2 4.5-19.1 1.1 5.6-4.4 12-4.8 19.1-1.1Z" fill="#ffffff" stroke="#587d51" stroke-width="2"/>
    <path d="M45.1 53c-7.8-2-12.5-6.4-14.1-13.3 7.1 1.7 11.8 6.2 14.1 13.3Z" fill="#ffffff" stroke="#587d51" stroke-width="2"/>
    <path d="M18.9 53c2.3-7.1 7-11.6 14.1-13.3-1.6 6.9-6.3 11.3-14.1 13.3Z" fill="#ffffff" stroke="#587d51" stroke-width="2"/>
    <path d="M9 36c7.1-3.7 13.5-3.3 19.1 1.1-5.9 3.4-12.3 3-19.1-1.1Z" fill="#ffffff" stroke="#587d51" stroke-width="2"/>
    <path d="M13.3 16.2c7.7 2.7 12.1 7.7 13 15.2-7.3-1.9-11.6-7-13-15.2Z" fill="#ffffff" stroke="#587d51" stroke-width="2"/>
    <circle cx="32" cy="33" r="9.2" fill="#d6b455" stroke="#587d51" stroke-width="1.8"/>
    <circle cx="32" cy="33" r="4.2" fill="#7c8c4d"/>
  </g>
</svg>
